<?xml version="1.0" encoding="UTF-8"?>
<svg id="Layer_1" data-name="Layer 1" xmlns="http://www.w3.org/2000/svg" viewBox="0 0 950 950">
  <defs>
    <style>
      .cls-1 {
        fill: #f15c61;
      }

      .cls-1, .cls-2 {
        stroke-width: 0px;
      }

      .cls-2 {
        fill: #fff;
      }
    </style>
  </defs>
  <path class="cls-1" d="M498.01,173.51c0,9.3-7.71,16.8-17.28,16.8s-17.28-7.49-17.28-16.8,7.44-16.8,17.28-16.8c9.84.26,17.28,7.75,17.28,16.8ZM426.76,207.36v4.13s-8.24-10.34-25.79-10.34c-28.98,0-51.57,21.45-51.57,51.16s22.33,51.16,51.57,51.16c17.81,0,25.79-10.59,25.79-10.59v4.39c0,2.07,1.59,3.62,3.72,3.62h21.53v-97.15h-21.53c-2.13,0-3.72,1.81-3.72,3.62ZM426.76,269.63c-3.99,5.68-11.96,10.59-21.53,10.59-17.01,0-30.04-10.34-30.04-27.91s13.03-27.91,30.04-27.91c9.3,0,17.81,5.17,21.53,10.59v34.62ZM467.97,203.74h25.52v97.15h-25.52v-97.15ZM849.16,201.16c-17.54,0-25.79,10.34-25.79,10.34v-54.52h-25.52v143.92h21.53c2.13,0,3.72-1.81,3.72-3.62v-4.39h0s8.24,10.59,25.79,10.59c28.98,0,51.57-21.7,51.57-51.16,0-29.46-22.6-51.16-51.3-51.16ZM844.91,279.97c-9.84,0-17.54-4.91-21.53-10.59v-34.62c3.99-5.17,12.49-10.59,21.53-10.59,17.01,0,30.04,10.34,30.04,27.91s-13.03,27.91-30.04,27.91ZM784.57,243.28v57.88h-25.52v-55.04c0-16.02-5.32-22.48-19.67-22.48-7.71,0-15.68,3.88-20.73,9.56v67.7h-25.52v-97.15h20.2c2.13,0,3.72,1.81,3.72,3.62v4.13c7.44-7.49,17.28-10.34,27.11-10.34,11.16,0,20.47,3.1,27.91,9.3,9.04,7.23,12.49,16.54,12.49,32.82ZM631.19,201.16c-17.54,0-25.79,10.34-25.79,10.34v-54.52h-25.52v143.92h21.53c2.13,0,3.72-1.81,3.72-3.62v-4.39h0s8.24,10.59,25.79,10.59c28.98,0,51.57-21.7,51.57-51.16.27-29.46-22.33-51.16-51.3-51.16ZM626.93,279.97c-9.84,0-17.54-4.91-21.53-10.59v-34.62c3.99-5.17,12.49-10.59,21.53-10.59,17.01,0,30.04,10.34,30.04,27.91s-13.03,27.91-30.04,27.91ZM557.82,201.16c7.71,0,11.7,1.29,11.7,1.29v23s-21.27-6.98-34.56,7.75v67.96h-25.52v-97.41h21.53c2.13,0,3.72,1.81,3.72,3.62v4.13c4.78-5.43,15.15-10.34,23.13-10.34ZM292.79,292.11c-1.33-3.1-2.66-6.46-3.99-9.3-2.13-4.65-4.25-9.04-6.11-13.18l-.27-.26c-18.34-38.76-38.01-78.03-58.75-116.79l-.8-1.55c-2.13-3.88-4.25-8.01-6.38-12.14-2.66-4.65-5.32-9.56-9.57-14.21-8.51-10.34-20.73-16.02-33.76-16.02s-25.25,5.68-34.03,15.5c-3.99,4.65-6.91,9.56-9.57,14.21-2.13,4.13-4.25,8.27-6.38,12.14l-.8,1.55c-20.47,38.76-40.41,78.03-58.75,116.79l-.27.52c-1.86,4.13-3.99,8.53-6.11,13.18-1.33,2.84-2.66,5.94-3.99,9.3-3.46,9.56-4.52,18.6-3.19,27.91,2.92,19.38,16.22,35.66,34.56,42.89,6.91,2.84,14.09,4.13,21.53,4.13,2.13,0,4.78-.26,6.91-.52,8.77-1.03,17.81-3.88,26.58-8.79,10.9-5.94,21.27-14.47,32.96-26.87,11.7,12.4,22.33,20.93,32.96,26.87,8.77,4.91,17.81,7.75,26.58,8.79,2.13.26,4.78.52,6.91.52,7.44,0,14.89-1.29,21.53-4.13,18.61-7.23,31.63-23.77,34.56-42.89,2.13-9.04,1.06-18.09-2.39-27.65ZM172.9,305.55c-14.35-17.57-23.66-34.11-26.85-48.06-1.33-5.94-1.59-11.11-.8-15.76.53-4.13,2.13-7.75,4.25-10.85,5.05-6.98,13.56-11.37,23.39-11.37s18.61,4.13,23.39,11.37c2.13,3.1,3.72,6.72,4.25,10.85.8,4.65.53,10.08-.8,15.76-3.19,13.69-12.49,30.23-26.85,48.06ZM278.96,317.69c-1.86,13.44-11.16,25.06-24.19,30.23-6.38,2.58-13.29,3.36-20.2,2.58-6.65-.78-13.29-2.84-20.2-6.72-9.57-5.17-19.14-13.18-30.3-25.06,17.54-20.93,28.18-40.05,32.17-57.1,1.86-8.01,2.13-15.24,1.33-21.96-1.06-6.46-3.46-12.4-7.18-17.57-8.24-11.63-22.06-18.35-37.48-18.35s-29.24,6.98-37.48,18.35c-3.72,5.17-6.11,11.11-7.18,17.57-1.06,6.72-.8,14.21,1.33,21.96,3.99,17.05,14.89,36.43,32.17,57.36-10.9,11.89-20.73,19.9-30.3,25.06-6.91,3.88-13.56,5.94-20.2,6.72-7.18.78-14.09-.26-20.2-2.58-13.03-5.17-22.33-16.8-24.19-30.23-.8-6.46-.27-12.92,2.39-20.15.8-2.58,2.13-5.17,3.46-8.27,1.86-4.13,3.99-8.53,6.11-12.92l.27-.52c18.34-38.5,38.01-77.78,58.48-116.02l.8-1.55c2.13-3.88,4.25-8.01,6.38-11.89,2.13-4.13,4.52-8.01,7.44-11.37,5.58-6.2,13.03-9.56,21.27-9.56s15.68,3.36,21.27,9.56c2.92,3.36,5.32,7.23,7.44,11.37,2.13,3.88,4.25,8.01,6.38,11.89l.8,1.55c20.2,38.5,39.87,77.78,58.22,116.28v.26c2.13,4.13,3.99,8.79,6.11,12.92,1.33,3.1,2.66,5.68,3.46,8.27,2.13,6.72,2.92,13.18,1.86,19.9Z"/>
  <g>
    <rect class="cls-1" y="475" width="950" height="475"/>
    <path class="cls-2" d="M498.01,648.29c0,9.3-7.71,16.8-17.28,16.8s-17.28-7.49-17.28-16.8,7.44-16.8,17.28-16.8c9.84.26,17.28,7.75,17.28,16.8ZM426.76,682.14v4.13s-8.24-10.34-25.79-10.34c-28.98,0-51.57,21.45-51.57,51.16s22.33,51.16,51.57,51.16c17.81,0,25.79-10.59,25.79-10.59v4.39c0,2.07,1.59,3.62,3.72,3.62h21.53v-97.15h-21.53c-2.13,0-3.72,1.81-3.72,3.62ZM426.76,744.41c-3.99,5.68-11.96,10.59-21.53,10.59-17.01,0-30.04-10.34-30.04-27.91s13.03-27.91,30.04-27.91c9.3,0,17.81,5.17,21.53,10.59v34.62ZM467.97,678.52h25.52v97.15h-25.52v-97.15ZM849.16,675.94c-17.54,0-25.79,10.34-25.79,10.34v-54.52h-25.52v143.92h21.53c2.13,0,3.72-1.81,3.72-3.62v-4.39h0s8.24,10.59,25.79,10.59c28.98,0,51.57-21.7,51.57-51.16,0-29.46-22.6-51.16-51.3-51.16ZM844.91,754.75c-9.84,0-17.54-4.91-21.53-10.59v-34.62c3.99-5.17,12.49-10.59,21.53-10.59,17.01,0,30.04,10.34,30.04,27.91s-13.03,27.91-30.04,27.91ZM784.57,718.06v57.88h-25.52v-55.04c0-16.02-5.32-22.48-19.67-22.48-7.71,0-15.68,3.88-20.73,9.56v67.7h-25.52v-97.15h20.2c2.13,0,3.72,1.81,3.72,3.62v4.13c7.44-7.49,17.28-10.34,27.11-10.34,11.16,0,20.47,3.1,27.91,9.3,9.04,7.23,12.49,16.54,12.49,32.82ZM631.19,675.94c-17.54,0-25.79,10.34-25.79,10.34v-54.52h-25.52v143.92h21.53c2.13,0,3.72-1.81,3.72-3.62v-4.39h0s8.24,10.59,25.79,10.59c28.98,0,51.57-21.7,51.57-51.16.27-29.46-22.33-51.16-51.3-51.16ZM626.93,754.75c-9.84,0-17.54-4.91-21.53-10.59v-34.62c3.99-5.17,12.49-10.59,21.53-10.59,17.01,0,30.04,10.34,30.04,27.91s-13.03,27.91-30.04,27.91ZM557.82,675.94c7.71,0,11.7,1.29,11.7,1.29v23s-21.27-6.98-34.56,7.75v67.96h-25.52v-97.41h21.53c2.13,0,3.72,1.81,3.72,3.62v4.13c4.78-5.43,15.15-10.34,23.13-10.34ZM292.79,766.89c-1.33-3.1-2.66-6.46-3.99-9.3-2.13-4.65-4.25-9.04-6.11-13.18l-.27-.26c-18.34-38.76-38.01-78.03-58.75-116.79l-.8-1.55c-2.13-3.88-4.25-8.01-6.38-12.14-2.66-4.65-5.32-9.56-9.57-14.21-8.51-10.34-20.73-16.02-33.76-16.02s-25.25,5.68-34.03,15.5c-3.99,4.65-6.91,9.56-9.57,14.21-2.13,4.13-4.25,8.27-6.38,12.14l-.8,1.55c-20.47,38.76-40.41,78.03-58.75,116.79l-.27.52c-1.86,4.13-3.99,8.53-6.11,13.18-1.33,2.84-2.66,5.94-3.99,9.3-3.46,9.56-4.52,18.6-3.19,27.91,2.92,19.38,16.22,35.66,34.56,42.89,6.91,2.84,14.09,4.13,21.53,4.13,2.13,0,4.78-.26,6.91-.52,8.77-1.03,17.81-3.88,26.58-8.79,10.9-5.94,21.27-14.47,32.96-26.87,11.7,12.4,22.33,20.93,32.96,26.87,8.77,4.91,17.81,7.75,26.58,8.79,2.13.26,4.78.52,6.91.52,7.44,0,14.89-1.29,21.53-4.13,18.61-7.23,31.63-23.77,34.56-42.89,2.13-9.04,1.06-18.09-2.39-27.65ZM172.9,780.33c-14.35-17.57-23.66-34.11-26.85-48.06-1.33-5.94-1.59-11.11-.8-15.76.53-4.13,2.13-7.75,4.25-10.85,5.05-6.98,13.56-11.37,23.39-11.37s18.61,4.13,23.39,11.37c2.13,3.1,3.72,6.72,4.25,10.85.8,4.65.53,10.08-.8,15.76-3.19,13.69-12.49,30.23-26.85,48.06ZM278.96,792.47c-1.86,13.44-11.16,25.06-24.19,30.23-6.38,2.58-13.29,3.36-20.2,2.58-6.65-.78-13.29-2.84-20.2-6.72-9.57-5.17-19.14-13.18-30.3-25.06,17.54-20.93,28.18-40.05,32.17-57.1,1.86-8.01,2.13-15.24,1.33-21.96-1.06-6.46-3.46-12.4-7.18-17.57-8.24-11.63-22.06-18.35-37.48-18.35s-29.24,6.98-37.48,18.35c-3.72,5.17-6.11,11.11-7.18,17.57-1.06,6.72-.8,14.21,1.33,21.96,3.99,17.05,14.89,36.43,32.17,57.36-10.9,11.89-20.73,19.9-30.3,25.06-6.91,3.88-13.56,5.94-20.2,6.72-7.18.78-14.09-.26-20.2-2.58-13.03-5.17-22.33-16.8-24.19-30.23-.8-6.46-.27-12.92,2.39-20.15.8-2.58,2.13-5.17,3.46-8.27,1.86-4.13,3.99-8.53,6.11-12.92l.27-.52c18.34-38.5,38.01-77.78,58.48-116.02l.8-1.55c2.13-3.88,4.25-8.01,6.38-11.89,2.13-4.13,4.52-8.01,7.44-11.37,5.58-6.2,13.03-9.56,21.27-9.56s15.68,3.36,21.27,9.56c2.92,3.36,5.32,7.23,7.44,11.37,2.13,3.88,4.25,8.01,6.38,11.89l.8,1.55c20.2,38.5,39.87,77.78,58.22,116.28v.26c2.13,4.13,3.99,8.79,6.11,12.92,1.33,3.1,2.66,5.68,3.46,8.27,2.13,6.72,2.92,13.18,1.86,19.9Z"/>
  </g>
</svg>